# xmcd CD database file
#
# Track frame offsets:
#	150
#	6867
#	18282
#	25845
#	39427
#	46762
#	62662
#	79917
#	86062
#	105367
#	115372
#	120842
#	133077
#	149935
#	166187
#	175887
#	183392
#	195745
#	210805
#	221630
#	233220
#	240325
#	251567
#	257775
#	270032
#	279477
#	300742
#	314282
#
# Disc length: 4346 seconds
#
# Revision: 3
# Processed by: cddbd v1.5.2PL0 Copyright (c) Steve Scherf et al.
# Submitted via: CDex 1.51
#
DISCID=7710f81c
DTITLE=Edvard Grieg - Songs - Lieder Vol.5
DYEAR=1991
DGENRE=Classique
TTITLE0=Look at the Sea (EG 121)
TTITLE1=Four Songs, Op.2 - The Maid of the Mill
TTITLE2=Four Songs, Op.2 - Closely Wrapp'd in Misty Billows
TTITLE3=Four Songs, Op.2 - I Stood before Her Portrait
TTITLE4=Four Songs, Op.2 - What Shall I Say
TTITLE5=Four Songs by Chr. Winther, Op.10 - Thanks
TTITLE6=Four Songs by Chr. Winther, Op.10 - Woodland Song
TTITLE7=Four Songs by Chr. Winther, Op.10 - Song of the Flowers
TTITLE8=Four Songs by Chr. Winther, Op.10 - Song on the Mountain
TTITLE9=Nine Songs, Op.18 - Moonlit Forest
TTITLE10=Nine Songs, Op.18 - My Darling is as White as Snow
TTITLE11=Nine Songs, Op.18 - The Poet's Farewell
TTITLE12=Nine Songs, Op.18 - Autumn Storms
TTITLE13=Nine Songs, Op.18 - Poesy
TTITLE14=Nine Songs, Op.18 - The Young Birch-Tree
TTITLE15=Nine Songs, Op.18 - The Cottage
TTITLE16=Nine Songs, Op.18 - The Rosebud
TTITLE17=Nine Songs, Op.18 - Serenade to Welhaven
TTITLE18=Six Songs by Henrik Ibsen, Op.25 - Fiddlers
TTITLE19=Six Songs by Henrik Ibsen, Op.25 - A Swan
TTITLE20=Six Songs by Henrik Ibsen, Op.25 - Album Lines
TTITLE21=Six Songs by Henrik Ibsen, Op.25 - With a Water-lily
TTITLE22=Six Songs by Henrik Ibsen, Op.25 - Departed
TTITLE23=Six Songs by Henrik Ibsen, Op.25 - A Bird-song
TTITLE24=Songs without Opus numbers - Easter Song
TTITLE25=Songs without Opus numbers - The Fair-haired Maid (I)
TTITLE26=Songs without Opus numbers - The Fair-haired Maid (II)
TTITLE27=Songs without Opus numbers - The Hunter
EXTD=YEAR: 1991
EXTT0=
EXTT1=
EXTT2=
EXTT3=
EXTT4=
EXTT5=
EXTT6=
EXTT7=
EXTT8=
EXTT9=
EXTT10=
EXTT11=
EXTT12=
EXTT13=
EXTT14=
EXTT15=
EXTT16=
EXTT17=
EXTT18=
EXTT19=
EXTT20=
EXTT21=
EXTT22=
EXTT23=
EXTT24=
EXTT25=
EXTT26=
EXTT27=
PLAYORDER=
